<svg width="58" height="33" viewBox="0 0 58 33" fill="none" xmlns="http://www.w3.org/2000/svg">
<path d="M58 14.7925V18.1752H46.9562V1.15441H50.8445V14.7925H58ZM6.93948 18.1752C10.9232 18.1752 14.2714 15.4691 15.2254 11.8072L24.9101 19.3296L34.5894 11.8107V18.1752H45.6331V14.7925H38.4777V1.15441H34.5894V7.51886L25.3061 14.7299L23.2306 13.1173L27.6733 9.6648L32.512 5.90627L29.7507 3.75853L20.4656 10.9713L18.3901 9.35875L27.6733 2.14773L24.9101 0L15.2254 7.52244C14.2714 3.86055 10.9232 1.15441 6.93948 1.15441H0V18.1752H6.93948ZM3.88827 14.7925V4.53709H6.93948C9.51906 4.53709 11.6108 6.83337 11.6108 9.6648C11.6108 12.4962 9.51906 14.7925 6.93948 14.7925H3.88827Z" fill="#0076CE"/>
<path d="M58 29.1559C58 28.1375 57.4312 27.6865 56.2935 27.4592C55.1558 27.2337 54.4736 27.1192 54.4736 26.3281C54.4736 25.7625 54.929 25.4242 55.7246 25.4242C56.7489 25.4242 57.0891 25.8771 57.0891 26.4426L57.2025 26.5554H57.658L57.7714 26.4426C57.7714 25.3115 56.8605 24.8587 55.7246 24.8587C54.4736 24.8587 53.7913 25.537 53.7913 26.3299C53.7913 27.2337 54.4736 27.6865 55.6112 27.912C56.7489 28.1393 57.3178 28.2521 57.3178 29.1559C57.3178 29.7215 56.9775 30.1743 55.8399 30.1743C54.8156 30.1743 54.3619 29.6087 54.3619 28.9304L54.2485 28.8177H53.7931L53.6797 28.9304C53.6797 29.9488 54.4754 30.7399 55.8399 30.7399C57.3178 30.7399 58 30.0616 58 29.1559ZM53.1091 28.0266L53.2225 27.9138V27.5756C53.2225 25.9916 52.3134 24.8605 50.7203 24.8605C49.129 24.8605 48.2181 25.9916 48.2181 27.5756V27.8011C48.2181 29.3832 49.0138 30.7417 50.8337 30.7417C52.425 30.7417 52.9939 29.7233 53.1091 29.045L52.9957 28.9322H52.5402L52.4268 29.045C52.2 29.7233 51.7446 30.1761 50.8355 30.1761C49.3558 30.1761 48.9022 28.8194 48.9022 28.1411L49.0156 28.0284H53.1091V28.0266ZM52.4268 27.461H49.0156L48.9022 27.3482C48.9022 26.5572 49.3576 25.426 50.7221 25.426C52.0866 25.426 52.542 26.5572 52.542 27.3482L52.4268 27.461ZM47.4225 30.5144V25.086L47.3091 24.9732H46.8536L46.7402 25.086V30.5144L46.8536 30.6271H47.3091L47.4225 30.5144ZM47.4225 23.9548V23.2765L47.3091 23.1637H46.8536L46.7402 23.2765V23.9548L46.8536 24.0676H47.3091L47.4225 23.9548ZM43.1004 30.1743C41.9627 30.1743 41.2804 29.3832 41.2804 27.7993C41.2804 26.2153 41.9627 25.4242 43.1004 25.4242C44.2362 25.4242 44.9203 26.2153 44.9203 27.7993C44.9203 29.3832 44.238 30.1743 43.1004 30.1743ZM44.9203 29.8342C44.9203 31.3037 44.5783 32.4348 43.2138 32.4348C42.1895 32.4348 41.8493 31.982 41.7359 31.4164L41.6225 31.3037H41.167L41.0536 31.4164C41.167 32.3202 41.8493 32.9986 43.2138 32.9986C44.6935 32.9986 45.6025 32.0947 45.6025 29.8325V25.0824L45.4891 24.9696H45.1471L45.0337 25.0824L44.9203 25.7625H44.8069C44.5801 25.3097 44.0112 24.8569 42.987 24.8569C41.3957 24.8569 40.5982 26.1008 40.5982 27.7975C40.5982 29.4942 41.3939 30.7381 42.987 30.7381C44.0112 30.7381 44.5801 30.2871 44.8069 29.8342H44.9203V29.8342ZM37.5272 25.4242C38.6649 25.4242 39.4605 26.3281 39.4605 27.7993C39.4605 29.2687 38.6649 30.1743 37.5272 30.1743C36.3895 30.1743 35.5939 29.2705 35.5939 27.7993C35.5939 26.3299 36.3895 25.4242 37.5272 25.4242ZM37.5272 30.7399C39.0051 30.7399 40.1428 29.7215 40.1428 27.7993C40.1428 25.8771 39.0051 24.8587 37.5272 24.8587C36.0475 24.8587 34.9116 25.8771 34.9116 27.7993C34.9116 29.7215 36.0493 30.7399 37.5272 30.7399ZM34.116 30.5144V22.8237L34.0025 22.7109H33.5471L33.4337 22.8237V30.5144L33.5471 30.6271H34.0025L34.116 30.5144ZM30.0207 25.4242C31.1583 25.4242 31.954 26.3281 31.954 27.7993C31.954 29.2687 31.1583 30.1743 30.0207 30.1743C28.883 30.1743 28.0873 29.2705 28.0873 27.7993C28.0873 26.3299 28.883 25.4242 30.0207 25.4242ZM30.0207 30.7399C31.4986 30.7399 32.6362 29.7215 32.6362 27.7993C32.6362 25.8771 31.4986 24.8587 30.0207 24.8587C28.5428 24.8587 27.4051 25.8771 27.4051 27.7993C27.4051 29.7215 28.5428 30.7399 30.0207 30.7399ZM26.7228 30.5144V27.1209C26.7228 25.6515 25.9272 24.8587 24.6761 24.8587C23.8804 24.8587 23.1964 25.1987 22.8562 25.7643H22.7428L22.6294 25.0842L22.516 24.9714H22.1739L22.0605 25.0842V30.5126L22.1739 30.6253H22.6294L22.7428 30.5126V27.4592C22.7428 26.2153 23.3116 25.4242 24.5627 25.4242C25.4718 25.4242 26.0406 25.9898 26.0406 27.1209V30.5144L26.154 30.6271H26.6094L26.7228 30.5144ZM20.921 30.5144V27.1209C20.921 25.6515 20.1254 24.8587 18.8743 24.8587C18.0786 24.8587 17.3964 25.1987 17.0544 25.7643H16.941V22.8237L16.8276 22.7109H16.3721L16.2587 22.8237V30.5144L16.3721 30.6271H16.8276L16.941 30.5144V27.461C16.941 26.2171 17.5098 25.426 18.7609 25.426C19.67 25.426 20.2388 25.9916 20.2388 27.1227V30.5162L20.3522 30.6289H20.8076L20.921 30.5144ZM11.141 27.7993C11.141 26.2153 11.9366 25.4242 13.0743 25.4242C14.212 25.4242 14.6656 26.1026 14.7808 26.7809L14.8942 26.8936H15.3497L15.4631 26.7809C15.3497 25.6498 14.4388 24.8587 13.0743 24.8587C11.5964 24.8587 10.4587 25.7643 10.4587 27.7993C10.4587 29.8342 11.5964 30.7399 13.0743 30.7399C14.4388 30.7399 15.3497 29.9488 15.4631 28.8177L15.3497 28.7049H14.8942L14.7808 28.8177C14.6674 29.496 14.212 30.1743 13.0743 30.1743C11.9366 30.1743 11.141 29.3832 11.141 27.7993ZM9.88988 28.0266L10.0033 27.9138V27.5756C10.0033 25.9916 9.09243 24.8605 7.50112 24.8605C5.90981 24.8605 4.99894 25.9916 4.99894 27.5756V27.8011C4.99894 29.3832 5.7946 30.7417 7.61452 30.7417C9.20583 30.7417 9.77467 29.7233 9.88988 29.045L9.77647 28.9322H9.32284L9.20943 29.045C8.98262 29.7233 8.52719 30.1761 7.61812 30.1761C6.14022 30.1761 5.68479 28.8194 5.68479 28.1411L5.7982 28.0284H9.88988V28.0266ZM9.20763 27.461H5.7946L5.68119 27.3482C5.68119 26.5572 6.13662 25.426 7.50112 25.426C8.86561 25.426 9.32104 26.5572 9.32104 27.3482L9.20763 27.461ZM6.14202 23.1637V22.8237L6.02862 22.7109H0.113408L0 22.8237V23.1637L0.113408 23.2765H2.61558L2.72899 23.3893V30.5144L2.8424 30.6271H3.29783L3.41124 30.5144V23.3893L3.52464 23.2765H6.02682L6.14202 23.1637Z" fill="#0076CE"/>
</svg>
